<svg width="24" height="25" viewBox="0 0 24 25" fill="none" xmlns="http://www.w3.org/2000/svg">
<g opacity="0.8">
<g clip-path="url(#clip0_2001_3275)">
<path d="M11.9997 10.1136C10.6842 10.1136 9.61306 11.1842 9.61306 12.4997C9.61306 13.8158 10.6842 14.8869 11.9997 14.8869C13.3158 14.8869 14.3864 13.8158 14.3864 12.4997C14.3864 11.1842 13.3158 10.1136 11.9997 10.1136ZM11.9997 10.1136C10.6842 10.1136 9.61306 11.1842 9.61306 12.4997C9.61306 13.8158 10.6842 14.8869 11.9997 14.8869C13.3158 14.8869 14.3864 13.8158 14.3864 12.4997C14.3864 11.1842 13.3158 10.1136 11.9997 10.1136ZM15.9758 6.22234H8.02422C6.75505 6.22234 5.72234 7.25505 5.72234 8.52422V16.4758C5.72234 17.7449 6.75505 18.7777 8.02422 18.7777H15.9758C17.2449 18.7777 18.2777 17.7449 18.2777 16.4758V8.52422C18.2777 7.25505 17.2449 6.22234 15.9758 6.22234ZM11.9997 16.6332C9.72102 16.6332 7.86676 14.779 7.86676 12.4997C7.86676 10.221 9.72102 8.36676 11.9997 8.36676C14.279 8.36676 16.1332 10.221 16.1332 12.4997C16.1332 14.779 14.279 16.6332 11.9997 16.6332ZM16.2659 9.22148C15.7267 9.22148 15.288 8.7828 15.288 8.24353C15.288 7.70427 15.7267 7.26558 16.2659 7.26558C16.8052 7.26558 17.2439 7.70427 17.2439 8.24353C17.2439 8.7828 16.8052 9.22148 16.2659 9.22148ZM11.9997 10.1136C10.6842 10.1136 9.61306 11.1842 9.61306 12.4997C9.61306 13.8158 10.6842 14.8869 11.9997 14.8869C13.3158 14.8869 14.3864 13.8158 14.3864 12.4997C14.3864 11.1842 13.3158 10.1136 11.9997 10.1136ZM15.9758 6.22234H8.02422C6.75505 6.22234 5.72234 7.25505 5.72234 8.52422V16.4758C5.72234 17.7449 6.75505 18.7777 8.02422 18.7777H15.9758C17.2449 18.7777 18.2777 17.7449 18.2777 16.4758V8.52422C18.2777 7.25505 17.2449 6.22234 15.9758 6.22234ZM11.9997 16.6332C9.72102 16.6332 7.86676 14.779 7.86676 12.4997C7.86676 10.221 9.72102 8.36676 11.9997 8.36676C14.279 8.36676 16.1332 10.221 16.1332 12.4997C16.1332 14.779 14.279 16.6332 11.9997 16.6332ZM16.2659 9.22148C15.7267 9.22148 15.288 8.7828 15.288 8.24353C15.288 7.70427 15.7267 7.26558 16.2659 7.26558C16.8052 7.26558 17.2439 7.70427 17.2439 8.24353C17.2439 8.7828 16.8052 9.22148 16.2659 9.22148ZM11.9997 10.1136C10.6842 10.1136 9.61306 11.1842 9.61306 12.4997C9.61306 13.8158 10.6842 14.8869 11.9997 14.8869C13.3158 14.8869 14.3864 13.8158 14.3864 12.4997C14.3864 11.1842 13.3158 10.1136 11.9997 10.1136ZM0 0.5V24.5H24V0.5H0ZM20.024 16.4758C20.024 18.7081 18.2081 20.524 15.9758 20.524H8.02422C5.79185 20.524 3.97604 18.7081 3.97604 16.4758V8.52422C3.97604 6.29185 5.79185 4.47604 8.02422 4.47604H15.9758C18.2081 4.47604 20.024 6.29185 20.024 8.52422V16.4758ZM15.9758 6.22234H8.02422C6.75505 6.22234 5.72234 7.25505 5.72234 8.52422V16.4758C5.72234 17.7449 6.75505 18.7777 8.02422 18.7777H15.9758C17.2449 18.7777 18.2777 17.7449 18.2777 16.4758V8.52422C18.2777 7.25505 17.2449 6.22234 15.9758 6.22234ZM11.9997 16.6332C9.72102 16.6332 7.86676 14.779 7.86676 12.4997C7.86676 10.221 9.72102 8.36676 11.9997 8.36676C14.279 8.36676 16.1332 10.221 16.1332 12.4997C16.1332 14.779 14.279 16.6332 11.9997 16.6332ZM16.2659 9.22148C15.7267 9.22148 15.288 8.7828 15.288 8.24353C15.288 7.70427 15.7267 7.26558 16.2659 7.26558C16.8052 7.26558 17.2439 7.70427 17.2439 8.24353C17.2439 8.7828 16.8052 9.22148 16.2659 9.22148ZM11.9997 10.1136C10.6842 10.1136 9.61306 11.1842 9.61306 12.4997C9.61306 13.8158 10.6842 14.8869 11.9997 14.8869C13.3158 14.8869 14.3864 13.8158 14.3864 12.4997C14.3864 11.1842 13.3158 10.1136 11.9997 10.1136ZM11.9997 10.1136C10.6842 10.1136 9.61306 11.1842 9.61306 12.4997C9.61306 13.8158 10.6842 14.8869 11.9997 14.8869C13.3158 14.8869 14.3864 13.8158 14.3864 12.4997C14.3864 11.1842 13.3158 10.1136 11.9997 10.1136ZM11.9997 10.1136C10.6842 10.1136 9.61306 11.1842 9.61306 12.4997C9.61306 13.8158 10.6842 14.8869 11.9997 14.8869C13.3158 14.8869 14.3864 13.8158 14.3864 12.4997C14.3864 11.1842 13.3158 10.1136 11.9997 10.1136ZM15.9758 6.22234H8.02422C6.75505 6.22234 5.72234 7.25505 5.72234 8.52422V16.4758C5.72234 17.7449 6.75505 18.7777 8.02422 18.7777H15.9758C17.2449 18.7777 18.2777 17.7449 18.2777 16.4758V8.52422C18.2777 7.25505 17.2449 6.22234 15.9758 6.22234ZM11.9997 16.6332C9.72102 16.6332 7.86676 14.779 7.86676 12.4997C7.86676 10.221 9.72102 8.36676 11.9997 8.36676C14.279 8.36676 16.1332 10.221 16.1332 12.4997C16.1332 14.779 14.279 16.6332 11.9997 16.6332ZM16.2659 9.22148C15.7267 9.22148 15.288 8.7828 15.288 8.24353C15.288 7.70427 15.7267 7.26558 16.2659 7.26558C16.8052 7.26558 17.2439 7.70427 17.2439 8.24353C17.2439 8.7828 16.8052 9.22148 16.2659 9.22148ZM11.9997 10.1136C10.6842 10.1136 9.61306 11.1842 9.61306 12.4997C9.61306 13.8158 10.6842 14.8869 11.9997 14.8869C13.3158 14.8869 14.3864 13.8158 14.3864 12.4997C14.3864 11.1842 13.3158 10.1136 11.9997 10.1136ZM11.9997 10.1136C10.6842 10.1136 9.61306 11.1842 9.61306 12.4997C9.61306 13.8158 10.6842 14.8869 11.9997 14.8869C13.3158 14.8869 14.3864 13.8158 14.3864 12.4997C14.3864 11.1842 13.3158 10.1136 11.9997 10.1136ZM11.9997 10.1136C10.6842 10.1136 9.61306 11.1842 9.61306 12.4997C9.61306 13.8158 10.6842 14.8869 11.9997 14.8869C13.3158 14.8869 14.3864 13.8158 14.3864 12.4997C14.3864 11.1842 13.3158 10.1136 11.9997 10.1136ZM15.9758 6.22234H8.02422C6.75505 6.22234 5.72234 7.25505 5.72234 8.52422V16.4758C5.72234 17.7449 6.75505 18.7777 8.02422 18.7777H15.9758C17.2449 18.7777 18.2777 17.7449 18.2777 16.4758V8.52422C18.2777 7.25505 17.2449 6.22234 15.9758 6.22234ZM11.9997 16.6332C9.72102 16.6332 7.86676 14.779 7.86676 12.4997C7.86676 10.221 9.72102 8.36676 11.9997 8.36676C14.279 8.36676 16.1332 10.221 16.1332 12.4997C16.1332 14.779 14.279 16.6332 11.9997 16.6332ZM16.2659 9.22148C15.7267 9.22148 15.288 8.7828 15.288 8.24353C15.288 7.70427 15.7267 7.26558 16.2659 7.26558C16.8052 7.26558 17.2439 7.70427 17.2439 8.24353C17.2439 8.7828 16.8052 9.22148 16.2659 9.22148ZM11.9997 10.1136C10.6842 10.1136 9.61306 11.1842 9.61306 12.4997C9.61306 13.8158 10.6842 14.8869 11.9997 14.8869C13.3158 14.8869 14.3864 13.8158 14.3864 12.4997C14.3864 11.1842 13.3158 10.1136 11.9997 10.1136Z" fill="white"/>
</g>
</g>
<defs>
<clipPath id="clip0_2001_3275">
<rect y="0.5" width="24" height="24" rx="4" fill="white"/>
</clipPath>
</defs>
</svg>
