<svg width="408" height="429" viewBox="0 0 408 429" fill="none" xmlns="http://www.w3.org/2000/svg">
<g clip-path="url(#clip0_355_17214)">
<g opacity="0.1" filter="url(#filter0_f_355_17214)">
<ellipse cx="204" cy="214.246" rx="170.466" ry="178.849" fill="#0C0C0C"/>
</g>
<g clip-path="url(#clip1_355_17214)">
<path d="M149.338 380.251H147.2V396.145H156.21V394.332H149.338V380.251Z" fill="url(#paint0_linear_355_17214)"/>
<path d="M160.726 380.251H158.577V396.145H160.726V380.251Z" fill="url(#paint1_linear_355_17214)"/>
<path d="M164.773 396.145H166.922V389.307H173.445V387.559H166.922V381.999H174.558V380.251H164.773V396.145Z" fill="url(#paint2_linear_355_17214)"/>
<path d="M179.445 388.968H185.63V387.275H179.445V381.999H187.081V380.251H177.307V396.145H187.081L187.091 394.387H179.445V388.968Z" fill="url(#paint3_linear_355_17214)"/>
<path d="M203.563 388.509C203.203 388.203 202.8 387.941 202.342 387.745C201.883 387.548 201.425 387.362 200.945 387.198C200.465 387.034 200.007 386.882 199.549 386.729C199.091 386.576 198.687 386.401 198.327 386.193C197.967 385.986 197.684 385.734 197.465 385.44C197.247 385.145 197.138 384.784 197.138 384.336C197.138 383.987 197.204 383.67 197.324 383.364C197.444 383.069 197.64 382.807 197.88 382.588C198.131 382.37 198.436 382.195 198.796 382.064C199.156 381.933 199.582 381.867 200.062 381.867C200.574 381.867 201 381.933 201.36 382.053C201.72 382.184 202.025 382.315 202.276 382.468C202.527 382.621 202.745 382.752 202.909 382.883C203.083 383.014 203.225 383.069 203.356 383.069C203.465 383.069 203.563 383.036 203.64 382.982C203.716 382.927 203.792 382.84 203.858 382.73L204.381 381.714C203.825 381.179 203.181 380.775 202.462 380.491C201.731 380.207 200.923 380.076 200.04 380.076C199.254 380.076 198.545 380.196 197.945 380.447C197.335 380.688 196.822 381.015 196.407 381.419C195.993 381.824 195.676 382.293 195.458 382.818C195.24 383.342 195.131 383.888 195.131 384.445C195.131 385.145 195.24 385.734 195.458 386.215C195.676 386.696 195.96 387.089 196.32 387.406C196.68 387.723 197.084 387.985 197.542 388.181C198 388.378 198.469 388.553 198.938 388.706C199.407 388.859 199.876 389.001 200.334 389.154C200.793 389.307 201.196 389.471 201.556 389.678C201.916 389.886 202.2 390.137 202.418 390.443C202.636 390.749 202.745 391.142 202.745 391.623C202.745 392.06 202.669 392.453 202.527 392.802C202.385 393.152 202.167 393.469 201.894 393.72C201.622 393.971 201.283 394.168 200.88 394.31C200.476 394.452 200.029 394.517 199.516 394.517C199.113 394.517 198.742 394.485 198.425 394.397C198.109 394.31 197.815 394.223 197.553 394.102C197.302 393.982 197.073 393.851 196.876 393.72C196.68 393.578 196.495 393.447 196.342 393.338C196.189 393.217 196.047 393.119 195.927 393.043C195.807 392.966 195.698 392.933 195.6 392.933C195.491 392.933 195.404 392.955 195.317 393.01C195.229 393.065 195.164 393.13 195.098 393.217L194.477 394.233C195.077 394.867 195.796 395.38 196.636 395.752C197.476 396.123 198.415 396.309 199.451 396.309C200.291 396.309 201.043 396.178 201.709 395.927C202.374 395.664 202.931 395.315 203.378 394.856C203.836 394.408 204.174 393.873 204.414 393.261C204.654 392.649 204.763 392.005 204.763 391.306C204.763 390.65 204.654 390.093 204.436 389.645C204.218 389.197 203.934 388.815 203.574 388.498L203.563 388.509Z" fill="url(#paint4_linear_355_17214)"/>
<path d="M218.017 383.146C217.777 382.545 217.417 382.021 216.926 381.594C216.436 381.168 215.825 380.83 215.083 380.6C214.341 380.371 213.468 380.251 212.465 380.251H207.785V396.145H209.923V390.203H212.465C213.425 390.203 214.276 390.083 215.007 389.831C215.737 389.58 216.359 389.241 216.861 388.793C217.363 388.346 217.734 387.821 217.995 387.209C218.257 386.598 218.388 385.92 218.388 385.178C218.388 384.435 218.268 383.757 218.028 383.146H218.017ZM215.988 386.51C215.825 386.915 215.585 387.264 215.257 387.559C214.93 387.854 214.537 388.083 214.068 388.236C213.599 388.4 213.054 388.477 212.443 388.477H209.901V381.933H212.443C213.708 381.933 214.657 382.217 215.279 382.785C215.901 383.353 216.217 384.14 216.217 385.156C216.217 385.647 216.13 386.095 215.977 386.499L215.988 386.51Z" fill="url(#paint5_linear_355_17214)"/>
<path d="M224.355 380.251L218.006 396.145H219.664C219.85 396.145 220.003 396.091 220.133 395.992C220.264 395.894 220.341 395.774 220.384 395.643L221.868 391.809H228.991L230.475 395.643C230.529 395.785 230.616 395.916 230.736 396.003C230.856 396.102 231.009 396.145 231.206 396.145H232.864L226.515 380.251H224.344H224.355ZM222.468 390.235L224.955 383.779C225.119 383.375 225.271 382.884 225.435 382.283C225.511 382.567 225.588 382.84 225.664 383.102C225.74 383.353 225.817 383.583 225.893 383.768L228.38 390.235H222.457H222.468Z" fill="url(#paint6_linear_355_17214)"/>
<path d="M245.692 392.857C245.572 392.857 245.441 392.912 245.31 393.021C245.037 393.272 244.764 393.491 244.481 393.665C244.208 393.84 243.903 393.993 243.586 394.113C243.27 394.233 242.91 394.321 242.539 394.375C242.157 394.43 241.732 394.463 241.263 394.463C240.488 394.463 239.768 394.321 239.103 394.037C238.438 393.753 237.859 393.349 237.369 392.813C236.878 392.278 236.485 391.623 236.201 390.847C235.918 390.071 235.776 389.187 235.776 388.203C235.776 387.22 235.918 386.346 236.19 385.571C236.463 384.795 236.845 384.14 237.336 383.593C237.827 383.047 238.416 382.643 239.092 382.359C239.768 382.075 240.521 381.933 241.339 381.933C242.016 381.933 242.594 381.998 243.052 382.151C243.51 382.304 243.903 382.457 244.219 382.632C244.535 382.807 244.775 382.971 244.972 383.113C245.168 383.255 245.321 383.331 245.463 383.331C245.583 383.331 245.67 383.309 245.746 383.266C245.812 383.222 245.877 383.156 245.921 383.08L246.63 382.097C245.975 381.474 245.212 380.983 244.35 380.622C243.488 380.262 242.485 380.076 241.361 380.076C240.237 380.076 239.158 380.272 238.209 380.666C237.259 381.059 236.441 381.616 235.754 382.337C235.067 383.058 234.543 383.91 234.161 384.915C233.78 385.909 233.594 387.013 233.594 388.214C233.594 389.416 233.78 390.508 234.14 391.502C234.5 392.496 235.012 393.359 235.667 394.07C236.321 394.78 237.118 395.337 238.045 395.73C238.972 396.123 240.008 396.32 241.143 396.32C242.452 396.32 243.575 396.112 244.503 395.686C245.43 395.271 246.215 394.681 246.87 393.928L246.019 393.01C245.932 392.912 245.823 392.868 245.713 392.868L245.692 392.857Z" fill="url(#paint7_linear_355_17214)"/>
<path d="M251.495 394.387V388.968H257.669V387.275H251.495V381.999H259.12V380.251H249.346V396.145H259.12L259.131 394.387H251.495Z" fill="url(#paint8_linear_355_17214)"/>
<path d="M33.5342 350.832H35.3886V349.303C36.3595 349.281 37.0685 349.194 37.4939 349.052C37.9194 348.91 38.1921 348.68 38.3339 348.342C38.4648 348.003 38.5302 347.457 38.5302 346.681V329.541C38.5302 328.711 38.4648 328.132 38.3339 327.783C38.203 327.444 37.9194 327.204 37.4939 327.073C37.0685 326.941 36.3595 326.865 35.3995 326.832V325.39C36.5231 325.445 38.2466 325.478 40.5483 325.478C43.3627 325.478 45.4462 325.445 46.7879 325.39H52.3512C53.6602 325.445 55.5692 325.478 58.0999 325.478C60.6307 325.478 62.5396 325.445 63.8268 325.39V326.832C62.8887 326.843 62.2015 326.996 61.7433 327.28C61.2961 327.564 61.0015 327.946 60.8925 328.449C60.7834 328.951 60.7179 329.64 60.7179 330.557V345.6C60.7179 346.496 60.7725 347.195 60.8925 347.697C61.0125 348.2 61.2961 348.593 61.7433 348.877C62.2015 349.161 62.8887 349.303 63.8268 349.325V350.854C62.5396 350.8 60.6307 350.767 58.0999 350.767C55.5692 350.767 53.7475 350.8 52.4603 350.854V349.325C53.4311 349.303 54.1402 349.227 54.5874 349.106C55.0237 348.986 55.2964 348.757 55.4055 348.418C55.5146 348.069 55.5692 347.479 55.5692 346.627V330.579C55.5692 329.53 55.4928 328.799 55.351 328.373C55.2092 327.946 54.9256 327.673 54.511 327.542C54.0965 327.422 53.3766 327.357 52.3512 327.357H46.8752C45.8607 327.357 45.1516 327.422 44.7589 327.553C44.3662 327.684 44.1044 327.968 43.9626 328.394C43.8208 328.831 43.7554 329.552 43.7554 330.568V345.611C43.7554 346.507 43.8099 347.195 43.9299 347.697C44.0499 348.2 44.3226 348.582 44.7589 348.877C45.1953 349.172 45.8716 349.314 46.7879 349.325V350.854C45.5552 350.8 43.6463 350.767 41.061 350.767C38.4757 350.767 36.0649 350.8 33.5451 350.854L33.5342 350.832Z" fill="url(#paint9_linear_355_17214)"/>
<path d="M64.9287 350.832H66.6195V349.303H67.7104C68.5176 349.303 69.0303 349.161 69.2375 348.888C69.6411 348.538 69.8375 346.649 69.8375 343.218V330.634C69.8375 328.788 69.6957 327.717 69.4012 327.411C69.2484 327.247 69.0303 327.127 68.7467 327.051C68.463 326.974 68.1031 326.92 67.6885 326.898C67.274 326.876 66.9686 326.854 66.794 326.832V325.39C67.5358 325.39 68.6703 325.423 70.1975 325.478C71.7246 325.532 72.87 325.565 73.6336 325.565C73.9063 325.565 74.3318 325.554 74.8881 325.521C75.4553 325.489 75.8808 325.478 76.1644 325.478C76.5025 325.478 77.0807 325.467 77.8988 325.434C78.7169 325.401 79.3387 325.39 79.7969 325.39C81.804 325.39 83.5494 325.849 85.0547 326.778C86.5492 327.695 87.3019 329.093 87.3019 330.962C87.3019 332.709 86.7564 334.25 85.6547 335.593C84.5529 336.937 83.1457 337.876 81.4113 338.412C80.2877 338.63 79.4151 338.74 78.7933 338.74C77.9643 338.74 77.2879 338.63 76.7534 338.412C76.6334 338.193 76.5353 338.008 76.4698 337.855C76.4044 337.702 76.328 337.549 76.2625 337.396L76.5134 337.046H77.1898C78.6188 337.046 79.7751 336.631 80.6586 335.79C81.5422 334.949 81.9895 333.736 81.9895 332.163C81.9895 331.377 81.8695 330.677 81.6404 330.044C81.4113 329.41 81.0841 328.908 80.6805 328.525C80.2768 328.143 79.7751 327.848 79.1969 327.641C78.6079 327.433 77.997 327.335 77.3534 327.335C76.8189 327.335 76.1426 327.4 75.3353 327.52C75.1717 328.689 75.0844 329.836 75.0844 330.962V346.102C75.0844 347.184 75.1499 347.938 75.2699 348.342C75.3899 348.746 75.6626 349.008 76.0662 349.128C76.4698 349.248 77.1789 349.303 78.2042 349.303H78.6406V350.832C77.277 350.778 75.2808 350.745 72.641 350.745C70.0011 350.745 67.4267 350.778 64.9614 350.832H64.9287Z" fill="url(#paint10_linear_355_17214)"/>
<path d="M90.6836 338.335C90.6836 335.528 91.2945 333.092 92.5271 331.027C93.7598 328.962 95.4506 327.389 97.6104 326.319C99.7703 325.259 102.236 324.724 105.028 324.724C107.483 324.724 109.719 325.248 111.726 326.297C113.733 327.345 115.293 328.82 116.427 330.721C117.551 332.622 118.118 334.807 118.118 337.254C118.118 339.417 117.769 341.372 117.093 343.131C116.417 344.89 115.424 346.386 114.148 347.631C112.871 348.866 111.333 349.816 109.544 350.472C107.755 351.127 105.803 351.455 103.686 351.455C100.97 351.455 98.6358 350.931 96.6941 349.882C94.7524 348.833 93.2689 347.326 92.2435 345.348C91.2181 343.371 90.7054 341.044 90.7054 338.346L90.6836 338.335ZM99.2794 328.536C97.3159 330.295 96.3341 333.277 96.3341 337.494C96.3341 339.362 96.6069 341.23 97.1523 343.087C97.6977 344.944 98.5704 346.495 99.7812 347.73C100.992 348.964 102.541 349.587 104.439 349.587C106.446 349.587 108.061 349.03 109.261 347.926C110.461 346.823 111.322 345.392 111.813 343.655C112.304 341.918 112.544 340.028 112.544 337.996C112.544 336.707 112.391 335.407 112.086 334.118C111.78 332.829 111.311 331.606 110.657 330.448C110.013 329.29 109.173 328.361 108.159 327.651C107.144 326.941 105.923 326.592 104.505 326.592C102.486 326.592 100.741 327.247 99.2685 328.547L99.2794 328.536Z" fill="url(#paint11_linear_355_17214)"/>
<path d="M144.506 332.655H143.142C143.109 331.628 143.044 330.798 142.946 330.175C142.837 329.552 142.64 329.028 142.335 328.591C142.029 328.154 141.571 327.783 140.938 327.477C140.317 327.171 139.477 326.931 138.419 326.756C137.524 326.636 136.881 326.57 136.477 326.57C134.252 326.57 132.332 327.204 130.706 328.482C129.081 329.749 128.001 331.519 127.456 333.769C127.161 334.949 127.019 336.107 127.019 337.232C127.019 339.351 127.477 341.372 128.383 343.295C129.288 345.218 130.575 346.681 132.255 347.686C133.892 348.648 135.713 349.128 137.731 349.128C138.79 349.128 140.142 348.899 141.789 348.451C142.378 348.276 143.48 347.828 145.084 347.107L145.575 347.435C145.324 347.85 144.909 348.462 144.32 349.292C142.018 350.712 139.008 351.422 135.299 351.422C133.161 351.422 131.197 351.106 129.408 350.461C127.619 349.817 126.081 348.833 124.783 347.49C123.485 346.146 122.569 344.464 122.034 342.443C121.652 341.11 121.456 339.679 121.456 338.15C121.456 335.462 122.121 333.059 123.452 330.929C124.783 328.799 126.703 327.171 129.223 326.057C131.285 325.15 133.499 324.691 135.877 324.691C138.473 324.691 141.571 325.259 145.171 326.384C144.789 328.689 144.56 330.776 144.495 332.633L144.506 332.655Z" fill="url(#paint12_linear_355_17214)"/>
<path d="M153.701 350.832V349.303C154.694 349.281 155.392 349.194 155.828 349.052C156.254 348.91 156.526 348.68 156.646 348.341C156.766 348.003 156.832 347.446 156.832 346.681V329.607C156.832 328.755 156.799 328.11 156.744 327.662H154.803C152.567 327.662 151.105 327.804 150.418 328.077C150.21 328.143 150.069 328.405 149.97 328.842C149.883 329.279 149.818 329.781 149.796 330.339C149.763 330.896 149.741 331.267 149.73 331.464H148.203V330.109C148.203 327.99 148.149 326.417 148.04 325.401C150.854 325.455 155.043 325.488 160.606 325.488C165.22 325.488 168.678 325.455 170.991 325.401C170.773 328.088 170.664 330.109 170.664 331.464H169.136V330.623C169.136 329.05 168.886 328.187 168.373 328.001C167.62 327.782 166.049 327.673 163.66 327.673H162.133C162.133 327.881 162.122 328.197 162.09 328.623C162.057 329.05 162.046 329.377 162.046 329.618V346.779C162.046 347.588 162.1 348.156 162.22 348.473C162.34 348.789 162.602 348.997 163.039 349.117C163.464 349.226 164.195 349.292 165.242 349.325V350.854C163.955 350.799 162.013 350.767 159.428 350.767C156.843 350.767 154.966 350.799 153.679 350.854L153.701 350.832Z" fill="url(#paint13_linear_355_17214)"/>
<path d="M171.842 350.832H174.133V349.303C175.082 349.292 175.769 349.215 176.194 349.095C176.62 348.975 176.892 348.757 177.001 348.44C177.111 348.134 177.165 347.599 177.165 346.845V329.541C177.165 328.7 177.111 328.11 176.991 327.76C176.871 327.411 176.62 327.171 176.216 327.039C175.812 326.908 175.125 326.843 174.133 326.843V325.401C176.14 325.51 177.678 325.565 178.769 325.565C180.285 325.565 182.565 325.51 185.608 325.401V326.843C184.637 326.843 183.928 326.974 183.481 327.225C183.045 327.476 182.761 327.859 182.641 328.361C182.521 328.864 182.467 329.596 182.467 330.557V345.6C182.467 346.495 182.521 347.184 182.641 347.675C182.761 348.167 183.045 348.56 183.481 348.855C183.917 349.15 184.626 349.303 185.597 349.314V350.843C184.288 350.788 182.347 350.756 179.772 350.756C177.198 350.756 174.602 350.788 171.842 350.843V350.832Z" fill="url(#paint14_linear_355_17214)"/>
<path d="M186.535 350.832H188.226V349.303H189.317C190.124 349.303 190.637 349.161 190.844 348.888C191.248 348.538 191.444 346.649 191.444 343.218V330.634C191.444 328.788 191.302 327.717 191.008 327.411C190.855 327.247 190.637 327.127 190.353 327.051C190.069 326.974 189.71 326.92 189.295 326.898C188.88 326.876 188.575 326.854 188.401 326.832V325.39C189.142 325.39 190.277 325.423 191.804 325.478C193.331 325.532 194.476 325.565 195.24 325.565C195.513 325.565 195.938 325.554 196.495 325.521C197.062 325.489 197.487 325.478 197.771 325.478C198.109 325.478 198.687 325.467 199.505 325.434C200.323 325.401 200.945 325.39 201.403 325.39C203.41 325.39 205.156 325.849 206.661 326.778C208.156 327.695 208.908 329.093 208.908 330.962C208.908 332.709 208.363 334.25 207.261 335.593C206.159 336.937 204.752 337.876 203.018 338.412C201.894 338.63 201.022 338.74 200.4 338.74C199.571 338.74 198.894 338.63 198.36 338.412C198.24 338.193 198.142 338.008 198.076 337.855C198.011 337.702 197.934 337.549 197.869 337.396L198.12 337.046H198.796C200.225 337.046 201.381 336.631 202.265 335.79C203.149 334.949 203.596 333.736 203.596 332.163C203.596 331.377 203.476 330.677 203.247 330.044C203.018 329.41 202.691 328.908 202.287 328.525C201.883 328.143 201.381 327.848 200.803 327.641C200.214 327.433 199.603 327.335 198.96 327.335C198.425 327.335 197.749 327.4 196.942 327.52C196.778 328.689 196.691 329.836 196.691 330.962V346.102C196.691 347.184 196.756 347.938 196.876 348.342C196.996 348.746 197.269 349.008 197.673 349.128C198.076 349.248 198.785 349.303 199.811 349.303H200.247V350.832C198.883 350.778 196.887 350.745 194.247 350.745C191.608 350.745 189.033 350.778 186.568 350.832H186.535Z" fill="url(#paint15_linear_355_17214)"/>
<path d="M243.674 346.856V338.75H243.074C242.223 339.755 241.405 340.771 240.608 341.809C239.823 342.847 239.19 343.699 238.71 344.343C238.241 344.999 237.674 345.775 237.02 346.681C236.365 347.588 235.372 348.975 234.042 350.832C233.365 350.778 232.384 350.745 231.075 350.745C229.504 350.745 228.326 350.778 227.529 350.832V349.303C228.337 349.303 229.024 348.997 229.569 348.374C230.3 347.61 230.889 346.933 231.347 346.343C231.805 345.753 232.285 345.119 232.787 344.442C233.289 343.765 234.009 342.792 234.958 341.525C235.918 340.236 236.736 339.133 237.423 338.215C238.1 337.297 238.721 336.434 239.267 335.626C238.634 334.949 238.056 334.337 237.521 333.769C236.987 333.201 236.42 332.589 235.787 331.923C235.165 331.256 234.413 330.503 233.551 329.662C232.689 328.82 232.024 328.22 231.576 327.848C231.14 327.509 230.671 327.258 230.169 327.116C229.667 326.974 229.067 326.876 228.369 326.832V325.39C228.991 325.445 229.973 325.478 231.336 325.478C232.7 325.478 233.66 325.445 234.282 325.39C234.282 326.122 234.369 326.657 234.554 326.996C234.729 327.346 235.154 327.903 235.809 328.689C236.572 329.607 237.205 330.35 237.685 330.918C238.165 331.486 238.776 332.174 239.529 333.004C240.281 333.835 241.045 334.665 241.83 335.495C242.616 336.336 243.227 336.992 243.663 337.472V329.53C243.663 328.689 243.597 328.099 243.477 327.75C243.357 327.4 243.085 327.16 242.659 327.029C242.245 326.898 241.525 326.832 240.532 326.832V325.39C241.656 325.445 243.346 325.478 245.594 325.478C248.463 325.478 250.601 325.445 251.997 325.39V326.832C250.928 326.865 250.186 326.931 249.782 327.062C249.379 327.182 249.128 327.433 249.03 327.793C248.932 328.154 248.888 328.875 248.888 329.946V337.472C249.793 336.511 250.47 335.79 250.917 335.309C251.364 334.829 252.117 333.987 253.197 332.797C254.266 331.606 254.986 330.809 255.346 330.382C255.706 329.967 256.175 329.399 256.731 328.678C257.353 327.979 257.756 327.433 257.942 327.051C258.127 326.668 258.226 326.111 258.226 325.379C258.902 325.434 259.884 325.467 261.193 325.467C262.502 325.467 263.516 325.434 264.138 325.379V326.821C263.451 326.876 262.862 326.974 262.36 327.105C261.858 327.247 261.378 327.488 260.931 327.826C260.08 328.525 259.262 329.268 258.466 330.066C257.68 330.852 256.687 331.901 255.488 333.201C254.288 334.501 253.546 335.298 253.262 335.604C253.949 336.598 254.506 337.374 254.92 337.942C255.335 338.51 255.771 339.111 256.229 339.744C256.687 340.378 257.124 340.957 257.571 341.492C257.735 341.711 258.258 342.421 259.142 343.633C260.025 344.835 260.745 345.775 261.28 346.452C261.825 347.129 262.382 347.763 262.96 348.353C263.407 348.975 264.083 349.281 264.978 349.281V350.811C264.192 350.756 263.014 350.723 261.433 350.723C260.145 350.723 259.164 350.756 258.487 350.811C257.746 349.784 257.069 348.833 256.458 347.981C255.848 347.129 255.073 346.059 254.146 344.77C253.208 343.48 252.411 342.399 251.735 341.525C251.059 340.651 250.295 339.712 249.444 338.707H248.866V345.556C248.866 345.622 248.855 345.775 248.823 346.004C248.801 346.233 248.779 346.397 248.779 346.474C248.779 347.369 248.844 347.992 248.964 348.353C249.084 348.713 249.368 348.953 249.793 349.074C250.219 349.194 250.95 349.259 251.964 349.259V350.789C250.731 350.734 248.823 350.701 246.237 350.701C243.652 350.701 241.776 350.734 240.488 350.789V349.259C241.427 349.248 242.114 349.172 242.561 349.052C243.008 348.932 243.292 348.713 243.423 348.396C243.554 348.09 243.619 347.555 243.619 346.801L243.674 346.856Z" fill="url(#paint16_linear_355_17214)"/>
<path d="M266.113 350.832H267.967V349.303C268.927 349.281 269.625 349.205 270.061 349.074C270.498 348.943 270.771 348.724 270.901 348.407C271.032 348.08 271.098 347.533 271.098 346.769V329.541C271.098 328.711 271.032 328.132 270.901 327.783C270.771 327.444 270.487 327.204 270.061 327.072C269.636 326.941 268.927 326.865 267.967 326.832V325.39C269.091 325.445 270.814 325.478 273.116 325.478C275.93 325.478 278.014 325.445 279.355 325.39V326.832C278.406 326.843 277.719 326.985 277.283 327.247C276.847 327.509 276.585 327.87 276.476 328.329C276.367 328.788 276.323 329.53 276.323 330.546V347.359C277.076 345.993 277.992 344.344 279.05 342.388C280.108 340.433 281.297 338.248 282.584 335.834C283.872 333.419 284.973 331.377 285.857 329.683C286.751 328.001 287.471 326.592 288.039 325.467C288.42 325.467 288.911 325.478 289.5 325.51C290.089 325.543 290.504 325.554 290.733 325.554C291.475 325.554 292.096 325.554 292.598 325.521C293.1 325.499 293.613 325.488 294.125 325.467C294.638 325.456 295.391 325.423 296.383 325.379V326.821C295.445 326.832 294.758 326.985 294.3 327.269C293.853 327.553 293.558 327.935 293.449 328.438C293.34 328.941 293.275 329.629 293.275 330.546V345.589C293.275 346.485 293.329 347.184 293.449 347.686C293.569 348.189 293.853 348.582 294.3 348.866C294.758 349.15 295.445 349.292 296.383 349.314V350.843C295.096 350.789 293.187 350.756 290.657 350.756C288.126 350.756 286.304 350.789 285.017 350.843V349.314C285.988 349.292 286.697 349.216 287.144 349.095C287.58 348.975 287.853 348.746 287.962 348.407C288.071 348.058 288.126 347.468 288.126 346.616V329.203C287.449 330.437 286.74 331.737 285.999 333.103C285.257 334.468 284.308 336.205 283.152 338.324C281.995 340.444 280.85 342.541 279.715 344.628C278.57 346.714 277.446 348.79 276.312 350.843C275.079 350.789 273.694 350.756 272.167 350.756C270.64 350.756 268.622 350.789 266.091 350.843L266.113 350.832Z" fill="url(#paint17_linear_355_17214)"/>
<path d="M304.761 350.832V349.303C305.753 349.281 306.451 349.194 306.888 349.052C307.313 348.91 307.586 348.68 307.706 348.341C307.826 348.003 307.891 347.446 307.891 346.681V329.607C307.891 328.755 307.859 328.11 307.804 327.662H305.862C303.626 327.662 302.164 327.804 301.477 328.077C301.27 328.143 301.128 328.405 301.03 328.842C300.943 329.279 300.877 329.781 300.855 330.339C300.823 330.896 300.801 331.267 300.79 331.464H299.263V330.109C299.263 327.99 299.208 326.417 299.099 325.401C301.913 325.455 306.102 325.488 311.666 325.488C316.28 325.488 319.738 325.455 322.05 325.401C321.832 328.088 321.723 330.109 321.723 331.464H320.196V330.623C320.196 329.05 319.945 328.187 319.432 328.001C318.68 327.782 317.109 327.673 314.72 327.673H313.193C313.193 327.881 313.182 328.197 313.149 328.623C313.116 329.05 313.106 329.377 313.106 329.618V346.779C313.106 347.588 313.16 348.156 313.28 348.473C313.4 348.789 313.662 348.997 314.098 349.117C314.524 349.226 315.254 349.292 316.302 349.325V350.854C315.014 350.799 313.073 350.767 310.487 350.767C307.902 350.767 306.026 350.799 304.739 350.854L304.761 350.832Z" fill="url(#paint18_linear_355_17214)"/>
<path d="M330.156 350.832V349.303C331.148 349.281 331.846 349.194 332.283 349.052C332.708 348.91 332.981 348.68 333.101 348.341C333.221 348.003 333.286 347.446 333.286 346.681V329.607C333.286 328.755 333.254 328.11 333.199 327.662H331.257C329.021 327.662 327.559 327.804 326.872 328.077C326.665 328.143 326.523 328.405 326.425 328.842C326.338 329.279 326.272 329.781 326.25 330.339C326.218 330.896 326.196 331.267 326.185 331.464H324.658V330.109C324.658 327.99 324.603 326.417 324.494 325.401C327.309 325.455 331.497 325.488 337.061 325.488C341.675 325.488 345.133 325.455 347.445 325.401C347.227 328.088 347.118 330.109 347.118 331.464H345.591V330.623C345.591 329.05 345.34 328.187 344.827 328.001C344.075 327.782 342.504 327.673 340.115 327.673H338.588C338.588 327.881 338.577 328.197 338.544 328.623C338.511 329.05 338.501 329.377 338.501 329.618V346.779C338.501 347.588 338.555 348.156 338.675 348.473C338.795 348.789 339.057 348.997 339.493 349.117C339.919 349.226 340.649 349.292 341.697 349.325V350.854C340.409 350.799 338.468 350.767 335.883 350.767C333.297 350.767 331.421 350.799 330.134 350.854L330.156 350.832Z" fill="url(#paint19_linear_355_17214)"/>
<path d="M374.465 350.745C373.844 350.745 372.916 350.734 371.684 350.701C370.451 350.679 369.513 350.657 368.88 350.657C368.248 350.657 367.32 350.668 366.055 350.701C364.79 350.734 363.852 350.745 363.23 350.745V349.216C364.135 349.216 364.779 349.161 365.171 349.063C365.553 348.964 365.815 348.746 365.968 348.429C366.121 348.112 366.186 347.588 366.186 346.845V330.961C366.186 329.388 366.153 328.208 366.099 327.411C365.87 327.411 365.51 327.4 365.051 327.367C364.582 327.345 364.233 327.324 364.004 327.324C363.241 327.324 362.466 327.498 361.692 327.859C360.917 328.219 360.263 328.755 359.739 329.465C359.205 330.175 358.943 331.016 358.943 331.977C358.943 333.376 359.455 334.588 360.47 335.604C361.474 336.675 362.957 337.21 364.942 337.21L365.193 337.865C364.353 338.881 363.655 339.81 363.088 340.651L356.499 350.723H350.009V349.194C350.445 349.183 350.838 349.084 351.187 348.899C351.525 348.713 351.83 348.473 352.092 348.167C352.354 347.861 352.616 347.489 352.9 347.042C353.172 346.594 353.39 346.244 353.554 346.004L359.194 337.385C358.016 336.806 357.077 336.281 356.379 335.801C355.681 335.32 355.081 334.665 354.558 333.845C353.936 332.797 353.63 331.671 353.63 330.459C353.63 329.071 354.045 327.946 354.885 327.072C356.008 325.947 357.677 325.379 359.87 325.379C360.317 325.325 360.994 325.292 361.888 325.292C362.455 325.292 363.295 325.303 364.419 325.335C365.542 325.368 366.393 325.379 366.95 325.379C367.2 325.379 367.604 325.39 368.16 325.423C368.717 325.456 369.131 325.467 369.393 325.467C370.626 325.467 372.316 325.412 374.455 325.303V326.745C374.247 326.756 373.942 326.777 373.549 326.81C373.146 326.832 372.807 326.887 372.524 326.963C372.24 327.04 372.011 327.16 371.847 327.324C371.618 327.553 371.498 328.35 371.498 329.694V347.784C371.498 348.112 371.738 348.429 372.207 348.746C372.676 349.052 373.102 349.205 373.451 349.205H374.465V350.734V350.745Z" fill="url(#paint20_linear_355_17214)"/>
<path d="M332.588 300.549H73.6226V38.6218H125.416V209.78H265.251C273.814 209.78 280.784 202.8 280.784 194.225C280.784 185.649 273.814 178.669 265.251 178.669H182.379C166.671 178.669 153.898 165.877 153.898 150.146C153.898 134.415 166.671 121.623 182.379 121.623H319.629V51.5887H147.429V38.6218H332.588V134.579H182.39C173.827 134.579 166.857 141.56 166.857 150.135C166.857 158.71 173.827 165.691 182.39 165.691H265.261C280.97 165.691 293.743 178.483 293.743 194.214C293.743 209.944 280.97 222.736 265.261 222.736H112.467V51.5887H86.5708V287.582H319.64V154.024H332.588V300.549Z" fill="url(#paint21_linear_355_17214)"/>
<path d="M318.342 365.711H87.8691V367.656H318.342V365.711Z" fill="url(#paint22_linear_355_17214)"/>
</g>
</g>
<defs>
<filter id="filter0_f_355_17214" x="-105.298" y="-103.435" width="618.596" height="635.364" filterUnits="userSpaceOnUse" color-interpolation-filters="sRGB">
<feFlood flood-opacity="0" result="BackgroundImageFix"/>
<feBlend mode="normal" in="SourceGraphic" in2="BackgroundImageFix" result="shape"/>
<feGaussianBlur stdDeviation="69.4163" result="effect1_foregroundBlur_355_17214"/>
</filter>
<linearGradient id="paint0_linear_355_17214" x1="118.052" y1="390.935" x2="326.003" y2="374.072" gradientUnits="userSpaceOnUse">
<stop stop-color="#A48149"/>
<stop offset="0.35" stop-color="#B7975B"/>
<stop offset="0.79" stop-color="#CCAF6F"/>
</linearGradient>
<linearGradient id="paint1_linear_355_17214" x1="151.626" y1="390.935" x2="201.529" y2="389.97" gradientUnits="userSpaceOnUse">
<stop stop-color="#A48149"/>
<stop offset="0.35" stop-color="#B7975B"/>
<stop offset="0.79" stop-color="#CCAF6F"/>
</linearGradient>
<linearGradient id="paint2_linear_355_17214" x1="133.12" y1="390.935" x2="358.682" y2="371.072" gradientUnits="userSpaceOnUse">
<stop stop-color="#A48149"/>
<stop offset="0.35" stop-color="#B7975B"/>
<stop offset="0.79" stop-color="#CCAF6F"/>
</linearGradient>
<linearGradient id="paint3_linear_355_17214" x1="145.654" y1="390.935" x2="371.215" y2="371.072" gradientUnits="userSpaceOnUse">
<stop stop-color="#A48149"/>
<stop offset="0.35" stop-color="#B7975B"/>
<stop offset="0.79" stop-color="#CCAF6F"/>
</linearGradient>
<linearGradient id="paint4_linear_355_17214" x1="161.201" y1="390.987" x2="398.221" y2="369.503" gradientUnits="userSpaceOnUse">
<stop stop-color="#A48149"/>
<stop offset="0.35" stop-color="#B7975B"/>
<stop offset="0.79" stop-color="#CCAF6F"/>
</linearGradient>
<linearGradient id="paint5_linear_355_17214" x1="173.486" y1="390.935" x2="417.58" y2="367.643" gradientUnits="userSpaceOnUse">
<stop stop-color="#A48149"/>
<stop offset="0.35" stop-color="#B7975B"/>
<stop offset="0.79" stop-color="#CCAF6F"/>
</linearGradient>
<linearGradient id="paint6_linear_355_17214" x1="169.945" y1="390.935" x2="509.03" y2="345.597" gradientUnits="userSpaceOnUse">
<stop stop-color="#A48149"/>
<stop offset="0.35" stop-color="#B7975B"/>
<stop offset="0.79" stop-color="#CCAF6F"/>
</linearGradient>
<linearGradient id="paint7_linear_355_17214" x1="190.65" y1="390.995" x2="494.894" y2="355.428" gradientUnits="userSpaceOnUse">
<stop stop-color="#A48149"/>
<stop offset="0.35" stop-color="#B7975B"/>
<stop offset="0.79" stop-color="#CCAF6F"/>
</linearGradient>
<linearGradient id="paint8_linear_355_17214" x1="217.694" y1="390.935" x2="443.255" y2="371.072" gradientUnits="userSpaceOnUse">
<stop stop-color="#A48149"/>
<stop offset="0.35" stop-color="#B7975B"/>
<stop offset="0.79" stop-color="#CCAF6F"/>
</linearGradient>
<linearGradient id="paint9_linear_355_17214" x1="-64.4585" y1="342.506" x2="619.462" y2="226.126" gradientUnits="userSpaceOnUse">
<stop stop-color="#A48149"/>
<stop offset="0.35" stop-color="#B7975B"/>
<stop offset="0.79" stop-color="#CCAF6F"/>
</linearGradient>
<linearGradient id="paint10_linear_355_17214" x1="-7.44543" y1="342.492" x2="504.207" y2="278.132" gradientUnits="userSpaceOnUse">
<stop stop-color="#A48149"/>
<stop offset="0.35" stop-color="#B7975B"/>
<stop offset="0.79" stop-color="#CCAF6F"/>
</linearGradient>
<linearGradient id="paint11_linear_355_17214" x1="1.93617" y1="342.691" x2="625.821" y2="251.102" gradientUnits="userSpaceOnUse">
<stop stop-color="#A48149"/>
<stop offset="0.35" stop-color="#B7975B"/>
<stop offset="0.79" stop-color="#CCAF6F"/>
</linearGradient>
<linearGradient id="paint12_linear_355_17214" x1="43.436" y1="342.659" x2="594.55" y2="271.532" gradientUnits="userSpaceOnUse">
<stop stop-color="#A48149"/>
<stop offset="0.35" stop-color="#B7975B"/>
<stop offset="0.79" stop-color="#CCAF6F"/>
</linearGradient>
<linearGradient id="paint13_linear_355_17214" x1="73.7952" y1="342.51" x2="598.249" y2="274.865" gradientUnits="userSpaceOnUse">
<stop stop-color="#A48149"/>
<stop offset="0.35" stop-color="#B7975B"/>
<stop offset="0.79" stop-color="#CCAF6F"/>
</linearGradient>
<linearGradient id="paint14_linear_355_17214" x1="127.309" y1="342.502" x2="445.211" y2="317.897" gradientUnits="userSpaceOnUse">
<stop stop-color="#A48149"/>
<stop offset="0.35" stop-color="#B7975B"/>
<stop offset="0.79" stop-color="#CCAF6F"/>
</linearGradient>
<linearGradient id="paint15_linear_355_17214" x1="114.161" y1="342.492" x2="625.813" y2="278.132" gradientUnits="userSpaceOnUse">
<stop stop-color="#A48149"/>
<stop offset="0.35" stop-color="#B7975B"/>
<stop offset="0.79" stop-color="#CCAF6F"/>
</linearGradient>
<linearGradient id="paint16_linear_355_17214" x1="106.388" y1="342.488" x2="939.454" y2="167.166" gradientUnits="userSpaceOnUse">
<stop stop-color="#A48149"/>
<stop offset="0.35" stop-color="#B7975B"/>
<stop offset="0.79" stop-color="#CCAF6F"/>
</linearGradient>
<linearGradient id="paint17_linear_355_17214" x1="168.098" y1="342.495" x2="852.019" y2="226.115" gradientUnits="userSpaceOnUse">
<stop stop-color="#A48149"/>
<stop offset="0.35" stop-color="#B7975B"/>
<stop offset="0.79" stop-color="#CCAF6F"/>
</linearGradient>
<linearGradient id="paint18_linear_355_17214" x1="224.855" y1="342.51" x2="749.308" y2="274.865" gradientUnits="userSpaceOnUse">
<stop stop-color="#A48149"/>
<stop offset="0.35" stop-color="#B7975B"/>
<stop offset="0.79" stop-color="#CCAF6F"/>
</linearGradient>
<linearGradient id="paint19_linear_355_17214" x1="250.25" y1="342.51" x2="774.703" y2="274.865" gradientUnits="userSpaceOnUse">
<stop stop-color="#A48149"/>
<stop offset="0.35" stop-color="#B7975B"/>
<stop offset="0.79" stop-color="#CCAF6F"/>
</linearGradient>
<linearGradient id="paint20_linear_355_17214" x1="270.895" y1="342.4" x2="828.511" y2="265.761" gradientUnits="userSpaceOnUse">
<stop stop-color="#A48149"/>
<stop offset="0.35" stop-color="#B7975B"/>
<stop offset="0.79" stop-color="#CCAF6F"/>
</linearGradient>
<linearGradient id="paint21_linear_355_17214" x1="55.4492" y1="67.0791" x2="344.606" y2="267.245" gradientUnits="userSpaceOnUse">
<stop offset="0.25" stop-color="#D59647"/>
<stop offset="0.38" stop-color="#BD833D"/>
<stop offset="0.74" stop-color="#805426"/>
<stop offset="0.91" stop-color="#68421D"/>
</linearGradient>
<linearGradient id="paint22_linear_355_17214" x1="-657.68" y1="367.018" x2="-639.118" y2="52.3158" gradientUnits="userSpaceOnUse">
<stop stop-color="#A48149"/>
<stop offset="0.35" stop-color="#B7975B"/>
<stop offset="0.79" stop-color="#CCAF6F"/>
</linearGradient>
<clipPath id="clip0_355_17214">
<rect width="408" height="428.547" fill="white"/>
</clipPath>
<clipPath id="clip1_355_17214">
<rect width="340.931" height="357.698" fill="white" transform="translate(33.5342 38.6218)"/>
</clipPath>
</defs>
</svg>
