<svg width="25" height="25" viewBox="0 0 25 25" fill="none" xmlns="http://www.w3.org/2000/svg">
<g clip-path="url(#clip0_2001_3265)">
<path d="M7.58 24.21C10.47 21.16 12.25 17.04 12.25 12.5C12.25 7.96 10.47 3.84 7.58 0.789999C7.4 0.609999 7.15 0.499999 6.87 0.499999C6.59 0.499999 6.34 0.609999 6.16 0.789999L3.68 3.27C3.5 3.45 3.39 3.7 3.39 3.98C3.39 4.25 3.5 4.5 3.67 4.68C4.41 5.47 5.03 6.37 5.52 7.34C5.68 7.67 6.02 7.9 6.42 7.9L9.52 7.9C10 9.35 10.25 10.9 10.25 12.5C10.25 14.1 10 15.65 9.53 17.1L6.43 17.1C6.04 17.1 5.69 17.33 5.53 17.66C5.04 18.64 4.41 19.53 3.68 20.32C3.5 20.5 3.4 20.75 3.4 21.02C3.4 21.3 3.51 21.55 3.69 21.73L6.17 24.21C6.35 24.39 6.6 24.5 6.88 24.5C7.15 24.5 7.4 24.39 7.58 24.21ZM7.02 5.9C6.65 5.24 6.22 4.61 5.75 4.03L6.82 2.96C7.57 3.87 8.21 4.86 8.72 5.91L7.02 5.91L7.02 5.9ZM5.76 20.97C6.24 20.38 6.66 19.76 7.03 19.1L8.73 19.1C8.22 20.14 7.58 21.13 6.83 22.04L5.76 20.97ZM17.99 21.66L19.4 20.25L15.85 16.69L14.44 18.1C14.44 18.1 17.96 21.55 17.99 21.66ZM22.25 11.5L22.25 13.5L17.25 13.5L17.25 11.5L22.25 11.5ZM14.44 6.9L15.85 8.31L19.41 4.76L17.99 3.34C17.96 3.45 14.44 6.9 14.44 6.9Z" fill="#EDEDED"/>
</g>
<defs>
<clipPath id="clip0_2001_3265">
<rect width="24" height="24" fill="white" transform="translate(24.25 0.5) rotate(90)"/>
</clipPath>
</defs>
</svg>
