<svg width="25" height="25" viewBox="0 0 25 25" fill="none" xmlns="http://www.w3.org/2000/svg">
<g clip-path="url(#clip0_2001_3256)">
<path d="M12.75 2.5C8.88 2.5 5.75 5.63 5.75 9.5C5.75 14.75 12.75 22.5 12.75 22.5C12.75 22.5 19.75 14.75 19.75 9.5C19.75 5.63 16.62 2.5 12.75 2.5ZM7.75 9.5C7.75 6.74 9.99 4.5 12.75 4.5C15.51 4.5 17.75 6.74 17.75 9.5C17.75 12.38 14.87 16.69 12.75 19.38C10.67 16.71 7.75 12.35 7.75 9.5Z" fill="#EDEDED"/>
<path d="M12.75 12C14.1307 12 15.25 10.8807 15.25 9.5C15.25 8.11929 14.1307 7 12.75 7C11.3693 7 10.25 8.11929 10.25 9.5C10.25 10.8807 11.3693 12 12.75 12Z" fill="#EDEDED"/>
</g>
<defs>
<clipPath id="clip0_2001_3256">
<rect width="24" height="24" fill="white" transform="translate(0.75 0.5)"/>
</clipPath>
</defs>
</svg>
